<svg width="1448" height="1032" viewBox="0 0 1448 1032" fill="none" xmlns="http://www.w3.org/2000/svg">
<g clip-path="url(#clip0_3002_604)" filter="url(#filter0_d_3002_604)">
<rect width="1440" height="1024" transform="translate(4)" fill="white"/>
<g filter="url(#filter1_f_3002_604)">
<path d="M1170.07 186.231C1134.5 198.885 1094.85 186.475 1072.84 155.799C1052.95 127.548 1060.33 88.4533 1089.15 69.401L1264.95 -46.821L1152.77 -138.858C1118.75 -166.771 1113.79 -216.978 1141.71 -251L1522.03 61.0278L1170.07 186.231Z" fill="#FFB200"/>
<path d="M1178.1 253.228C1141 267.705 1098.81 254.786 1076.17 222.015C1055.3 191.166 1063.2 149.257 1093.87 128.127L1293.43 -9.33585L1179.15 -103.089C1140.47 -134.826 1134.84 -191.913 1166.58 -230.596L1569.95 100.342L1178.1 253.228Z" fill="#640D5F"/>
<path d="M1226.37 394.839C1187.63 409.807 1143.67 396.316 1119.99 362.19L1113.89 353.386C1088.81 316.489 1098.28 266.259 1135.07 241.026L1372.71 78.0545L1228.84 -39.9796C1186.15 -75.0099 1179.93 -138.021 1214.96 -180.718L1219.95 -186.803L1704 210.323L1226.37 394.839Z" fill="#D91656"/>
</g>
<g filter="url(#filter2_f_3002_604)">
<path d="M412.585 649.386C433.19 614.34 474.732 597.458 513.943 608.198L526 611.5C568.596 623.592 593.023 668.238 580.237 710.63L500.5 975H687C742.228 975 787 1019.77 787 1075V1079H160L412.585 649.386Z" fill="#FFB200"/>
<path d="M351.115 586.471C371.442 549.408 414.823 531.485 455.382 543.394L469.182 547.446C514.857 561.346 541.04 609.209 528.11 655.168L442.136 960.75H627.75C693.058 960.75 746 1013.69 746 1079H81L351.115 586.471Z" fill="#640D5F"/>
<path d="M191.084 480.006C211.445 443.169 254.616 425.363 295.025 437.136L325.818 446.106L339.744 450.311C386.759 464.507 413.713 513.773 400.315 561.021L293.364 938.207H558C613.229 938.207 658 982.978 658 1038.21V1079H-140L191.084 480.006Z" fill="#D91656"/>
</g>
<path d="M567.119 123.459C571.185 171.979 519.161 205.159 476.88 181.013L471.11 177.718C435.054 157.126 389.874 181.32 387.028 222.744C383.164 278.996 308.185 295.267 281.352 245.676L226.38 144.078C164.781 152.864 126.201 79.5044 168.347 33.7294L239.896 -43.9807L511.31 -28.2408C536.158 -26.7999 556.163 -7.3023 558.241 17.5004L567.119 123.459Z" fill="#D91656"/>
<path d="M562.229 77.2955C563.256 125.294 507.597 152.811 470.172 122.959C437.804 97.1408 389.266 114.128 379.981 154.655C367.374 209.682 290.797 214.442 272.08 161.362L233.718 52.5687C185.166 52.0844 169.836 -12.9813 212.952 -35.5673L284.173 -72.8753L513.494 -59.746C539.422 -58.2615 559.781 -37.1488 560.337 -11.1681L562.229 77.2955Z" fill="#640D5F"/>
<path d="M621.588 -33.1518C662.279 40.7111 576.641 120.32 506.038 74.2645L498.318 69.2284L441.905 34.4858C418.845 20.2841 390.549 17.2931 364.904 26.3462L284.031 54.8957C235.478 54.4115 220.148 -10.6543 263.265 -33.2403L334.485 -70.5484L584.955 -56.2081C600.342 -55.3271 614.164 -46.6277 621.588 -33.1518Z" fill="#FFB200"/>
<path d="M1292.88 1150.55C1244.6 1144.31 1223.11 1086.47 1255.62 1050.22L1260.06 1045.27C1287.78 1014.36 1273.64 965.099 1233.75 953.595C1179.57 937.971 1179.45 861.247 1233.58 845.459L1344.48 813.114C1348.86 751.046 1428.7 728.778 1464.57 779.618L1525.47 865.927L1452.93 1127.94C1446.29 1151.93 1423.02 1167.38 1398.34 1164.19L1292.88 1150.55Z" fill="#D91656"/>
<path d="M1339.04 1155.49C1291.9 1146.39 1276.72 1086.19 1313.79 1055.89C1345.84 1029.68 1339.46 978.654 1301.79 961.044C1250.66 937.132 1262.13 861.269 1317.96 854.15L1432.39 839.557C1443.09 792.195 1509.92 790.91 1522.92 837.815L1544.4 915.296L1483.27 1136.71C1476.36 1161.74 1451.44 1177.2 1425.92 1172.27L1339.04 1155.49Z" fill="#640D5F"/>
<path d="M1434.51 1236.78C1353.74 1261 1293.95 1160.52 1353.84 1101.2L1360.39 1094.72L1406.23 1046.88C1424.97 1027.33 1433.85 1000.3 1430.4 973.322L1419.52 888.25C1430.22 840.889 1497.05 839.604 1510.05 886.509L1531.53 963.989L1464.77 1205.82C1460.67 1220.68 1449.25 1232.36 1434.51 1236.78Z" fill="#FFB200"/>
<foreignObject x="-19.8" y="-23.8" width="1487.6" height="1071.6"><div xmlns="http://www.w3.org/1999/xhtml" style="backdrop-filter:blur(11.9px);clip-path:url(#bgblur_1_3002_604_clip_path);height:100%;width:100%"></div></foreignObject><path data-figma-bg-blur-radius="23.8" d="M4 0H1444V1024H4V0Z" fill="#8700EF" fill-opacity="0.1"/>
</g>
<defs>
<filter id="filter0_d_3002_604" x="0" y="0" width="1448" height="1032" filterUnits="userSpaceOnUse" color-interpolation-filters="sRGB">
<feFlood flood-opacity="0" result="BackgroundImageFix"/>
<feColorMatrix in="SourceAlpha" type="matrix" values="0 0 0 0 0 0 0 0 0 0 0 0 0 0 0 0 0 0 127 0" result="hardAlpha"/>
<feOffset dy="4"/>
<feGaussianBlur stdDeviation="2"/>
<feComposite in2="hardAlpha" operator="out"/>
<feColorMatrix type="matrix" values="0 0 0 0 0 0 0 0 0 0 0 0 0 0 0 0 0 0 0.25 0"/>
<feBlend mode="normal" in2="BackgroundImageFix" result="effect1_dropShadow_3002_604"/>
<feBlend mode="normal" in="SourceGraphic" in2="effect1_dropShadow_3002_604" result="shape"/>
</filter>
<filter id="filter1_f_3002_604" x="1051.06" y="-261.6" width="663.54" height="673.094" filterUnits="userSpaceOnUse" color-interpolation-filters="sRGB">
<feFlood flood-opacity="0" result="BackgroundImageFix"/>
<feBlend mode="normal" in="SourceGraphic" in2="BackgroundImageFix" result="shape"/>
<feGaussianBlur stdDeviation="5.3" result="effect1_foregroundBlur_3002_604"/>
</filter>
<filter id="filter2_f_3002_604" x="-153.9" y="419.634" width="954.8" height="673.266" filterUnits="userSpaceOnUse" color-interpolation-filters="sRGB">
<feFlood flood-opacity="0" result="BackgroundImageFix"/>
<feBlend mode="normal" in="SourceGraphic" in2="BackgroundImageFix" result="shape"/>
<feGaussianBlur stdDeviation="6.95" result="effect1_foregroundBlur_3002_604"/>
</filter>
<clipPath id="bgblur_1_3002_604_clip_path" transform="translate(19.8 23.8)"><path d="M4 0H1444V1024H4V0Z"/>
</clipPath><clipPath id="clip0_3002_604">
<rect width="1440" height="1024" fill="white" transform="translate(4)"/>
</clipPath>
</defs>
</svg>
